<svg viewBox="0 0 15 15" fill="none" xmlns="http://www.w3.org/2000/svg">
<g clip-path="url(#clip0_39_464)">
<path fill-rule="evenodd" clip-rule="evenodd" d="M6.6875 11.5C7.31949 11.5 7.94528 11.3755 8.52916 11.1337C9.11304 10.8918 9.64357 10.5373 10.0905 10.0905C10.5373 9.64357 10.8918 9.11304 11.1337 8.52916C11.3755 7.94528 11.5 7.31949 11.5 6.6875C11.5 6.05551 11.3755 5.42972 11.1337 4.84584C10.8918 4.26196 10.5373 3.73143 10.0905 3.28455C9.64357 2.83767 9.11304 2.48318 8.52916 2.24133C7.94528 1.99948 7.31949 1.875 6.6875 1.875C5.41115 1.875 4.18707 2.38203 3.28455 3.28455C2.38203 4.18707 1.875 5.41115 1.875 6.6875C1.875 7.96385 2.38203 9.18793 3.28455 10.0905C4.18707 10.993 5.41115 11.5 6.6875 11.5ZM12.375 6.6875C12.375 8.19592 11.7758 9.64256 10.7092 10.7092C9.64256 11.7758 8.19592 12.375 6.6875 12.375C5.17908 12.375 3.73244 11.7758 2.66583 10.7092C1.59922 9.64256 1 8.19592 1 6.6875C1 5.17908 1.59922 3.73244 2.66583 2.66583C3.73244 1.59922 5.17908 1 6.6875 1C8.19592 1 9.64256 1.59922 10.7092 2.66583C11.7758 3.73244 12.375 5.17908 12.375 6.6875Z" fill="black"/>
<path d="M10.0508 11.2743C10.0764 11.3093 10.105 11.3428 10.1365 11.3749L13.5053 14.7437C13.6694 14.9079 13.8919 15.0001 14.124 15.0002C14.3561 15.0003 14.5788 14.9082 14.743 14.7441C14.9072 14.58 14.9994 14.3575 14.9995 14.1254C14.9996 13.8932 14.9075 13.6706 14.7434 13.5064L11.3747 10.1377C11.3434 10.106 11.3097 10.0767 11.274 10.0502C10.9312 10.5185 10.5187 10.9316 10.0508 11.2752V11.2743Z" fill="black"/>
<path fill-rule="evenodd" clip-rule="evenodd" d="M6.6875 3.625C6.80353 3.625 6.91481 3.67109 6.99686 3.75314C7.07891 3.83519 7.125 3.94647 7.125 4.0625V6.25H9.3125C9.42853 6.25 9.53981 6.29609 9.62186 6.37814C9.70391 6.46019 9.75 6.57147 9.75 6.6875C9.75 6.80353 9.70391 6.91481 9.62186 6.99686C9.53981 7.07891 9.42853 7.125 9.3125 7.125H7.125V9.3125C7.125 9.42853 7.07891 9.53981 6.99686 9.62186C6.91481 9.70391 6.80353 9.75 6.6875 9.75C6.57147 9.75 6.46019 9.70391 6.37814 9.62186C6.29609 9.53981 6.25 9.42853 6.25 9.3125V7.125H4.0625C3.94647 7.125 3.83519 7.07891 3.75314 6.99686C3.67109 6.91481 3.625 6.80353 3.625 6.6875C3.625 6.57147 3.67109 6.46019 3.75314 6.37814C3.83519 6.29609 3.94647 6.25 4.0625 6.25H6.25V4.0625C6.25 3.94647 6.29609 3.83519 6.37814 3.75314C6.46019 3.67109 6.57147 3.625 6.6875 3.625Z" fill="black"/>
</g>
<defs>
<clipPath id="clip0_39_464">
<rect width="14" height="14" fill="white" transform="translate(1 1)"/>
</clipPath>
</defs>
</svg>
